<svg width="216" height="24" viewBox="0 0 216 24" fill="none" xmlns="http://www.w3.org/2000/svg">
<path d="M12 7.5C11.11 7.5 10.24 7.76392 9.49993 8.25839C8.75991 8.75285 8.18314 9.45566 7.84254 10.2779C7.50195 11.1002 7.41283 12.005 7.58647 12.8779C7.7601 13.7508 8.18868 14.5526 8.81802 15.182C9.44736 15.8113 10.2492 16.2399 11.1221 16.4135C11.995 16.5872 12.8998 16.4981 13.7221 16.1575C14.5443 15.8169 15.2471 15.2401 15.7416 14.5001C16.2361 13.76 16.5 12.89 16.5 12C16.4987 10.8069 16.0241 9.66312 15.1805 8.8195C14.3369 7.97588 13.1931 7.50134 12 7.5ZM12 15C11.4067 15 10.8266 14.8241 10.3333 14.4944C9.83994 14.1648 9.45542 13.6962 9.22836 13.1481C9.0013 12.5999 8.94189 11.9967 9.05764 11.4147C9.1734 10.8328 9.45912 10.2982 9.87868 9.87868C10.2982 9.45912 10.8328 9.1734 11.4147 9.05764C11.9967 8.94189 12.5999 9.0013 13.1481 9.22836C13.6962 9.45542 14.1648 9.83994 14.4944 10.3333C14.8241 10.8266 15 11.4067 15 12C14.9991 12.7954 14.6827 13.5579 14.1203 14.1203C13.5579 14.6827 12.7954 14.9991 12 15ZM16.125 2.625H7.875C6.4831 2.62659 5.14867 3.18022 4.16444 4.16444C3.18022 5.14867 2.62659 6.4831 2.625 7.875V16.125C2.62659 17.5169 3.18022 18.8513 4.16444 19.8356C5.14867 20.8198 6.4831 21.3734 7.875 21.375H16.125C17.5169 21.3734 18.8513 20.8198 19.8356 19.8356C20.8198 18.8513 21.3734 17.5169 21.375 16.125V7.875C21.3734 6.4831 20.8198 5.14867 19.8356 4.16444C18.8513 3.18022 17.5169 2.62659 16.125 2.625ZM19.875 16.125C19.8739 17.1192 19.4784 18.0724 18.7754 18.7754C18.0724 19.4784 17.1192 19.8739 16.125 19.875H7.875C6.88078 19.8739 5.9276 19.4784 5.22458 18.7754C4.52156 18.0724 4.12612 17.1192 4.125 16.125V7.875C4.12612 6.88078 4.52156 5.9276 5.22458 5.22458C5.9276 4.52156 6.88078 4.12612 7.875 4.125H16.125C17.1192 4.12612 18.0724 4.52156 18.7754 5.22458C19.4784 5.9276 19.8739 6.88078 19.875 7.875V16.125ZM18 7.125C18 7.3475 17.934 7.56501 17.8104 7.75002C17.6868 7.93502 17.5111 8.07922 17.3055 8.16436C17.1 8.24951 16.8738 8.27179 16.6555 8.22838C16.4373 8.18498 16.2368 8.07783 16.0795 7.9205C15.9222 7.76316 15.815 7.56271 15.7716 7.34448C15.7282 7.12625 15.7505 6.90005 15.8356 6.69448C15.9208 6.48891 16.065 6.31321 16.25 6.1896C16.435 6.06598 16.6525 6 16.875 6C17.1734 6 17.4595 6.11853 17.6705 6.3295C17.8815 6.54048 18 6.82663 18 7.125Z" fill="#EBEBF5" fill-opacity="0.6"/>
<path d="M71.0303 7.28039L68.2457 10.065C68.1709 12.8172 67.1204 15.5013 65.3375 17.472C63.2491 19.7801 60.3661 21 57 21C53.727 21 52.0399 19.3506 51.9697 19.2804C51.8737 19.1845 51.8056 19.0643 51.7726 18.9327C51.7395 18.8011 51.7428 18.663 51.782 18.5331C51.8213 18.4032 51.895 18.2864 51.9954 18.1951C52.0958 18.1039 52.2191 18.0415 52.3521 18.0148C53.1525 17.8526 55.1394 17.2212 55.9849 16.083C55.0784 15.5603 54.2734 14.8786 53.6085 14.0705C51.2561 11.214 51.306 7.62426 51.7621 5.11589C51.7878 4.97429 51.8538 4.84308 51.952 4.73792C52.0503 4.63277 52.1768 4.55811 52.3163 4.52285C52.4558 4.4876 52.6026 4.49324 52.739 4.5391C52.8754 4.58495 52.9958 4.6691 53.0857 4.78148C53.1114 4.81354 55.5764 7.83351 59.25 8.82023V8.25023C59.2579 7.04932 59.7424 5.90071 60.5969 5.05689C61.4515 4.21308 62.6061 3.74312 63.807 3.75033C64.5871 3.76111 65.3511 3.97407 66.0243 4.36838C66.6975 4.7627 67.257 5.32489 67.6479 6.00004H70.5C70.6483 6.00004 70.7934 6.04402 70.9167 6.12643C71.04 6.20884 71.1362 6.32598 71.1929 6.46303C71.2497 6.60008 71.2646 6.75088 71.2356 6.89637C71.2067 7.04186 71.1352 7.1755 71.0303 7.28039Z" fill="#EBEBF5" fill-opacity="0.6"/>
<path d="M117.68 2.97513C117.474 2.79669 117.222 2.67819 116.953 2.63246C116.684 2.58674 116.407 2.61553 116.153 2.71573L98.8509 9.51307C98.5493 9.63158 98.2943 9.84453 98.1238 10.1201C97.9534 10.3956 97.8768 10.7189 97.9054 11.0416C97.934 11.3644 98.0664 11.6691 98.2826 11.9104C98.4989 12.1516 98.7874 12.3164 99.1051 12.3799L103.5 13.2591V18.7485C103.5 19.0453 103.588 19.3354 103.752 19.5823C103.917 19.8291 104.151 20.0215 104.426 20.1351C104.7 20.2487 105.002 20.2783 105.293 20.2203C105.584 20.1623 105.851 20.0192 106.061 19.8092L108.493 17.377L112.184 20.6254C112.456 20.8668 112.807 21.0003 113.17 21.0008C113.328 21.0006 113.485 20.9758 113.636 20.927C113.884 20.8484 114.106 20.7061 114.282 20.5144C114.458 20.3227 114.58 20.0883 114.637 19.8345L118.164 4.4471C118.225 4.18101 118.212 3.90319 118.127 3.64374C118.042 3.38428 117.887 3.1531 117.68 2.97523V2.97513ZM113.175 19.4993L105.451 12.7019L116.574 4.66873L113.175 19.4993Z" fill="#EBEBF5" fill-opacity="0.6"/>
<path d="M165.968 6.54354C165.88 6.1986 165.71 5.87975 165.473 5.6133C165.237 5.34686 164.941 5.14044 164.609 5.0111C161.396 3.77651 156.279 3.78682 156 3.78832C155.721 3.78607 150.604 3.77651 147.391 5.0111C147.059 5.14042 146.763 5.34681 146.527 5.61325C146.29 5.87968 146.121 6.19852 146.032 6.54345C145.789 7.47448 145.5 9.17689 145.5 12.0001C145.5 14.8233 145.789 16.5256 146.032 17.4566C146.12 17.8015 146.29 18.1204 146.527 18.3868C146.763 18.6533 147.059 18.8597 147.391 18.989C150.467 20.1709 155.287 20.212 155.938 20.212H156.062C156.713 20.212 161.533 20.1708 164.609 18.989C164.941 18.8597 165.237 18.6533 165.473 18.3869C165.71 18.1205 165.879 17.8016 165.968 17.4567C166.211 16.5257 166.5 14.8233 166.5 12.0001C166.5 9.17689 166.211 7.47457 165.968 6.54354ZM159.208 12.3121L154.708 15.3121C154.652 15.3497 154.586 15.3713 154.518 15.3746C154.45 15.3779 154.383 15.3627 154.323 15.3307C154.263 15.2987 154.213 15.251 154.178 15.1928C154.143 15.1346 154.125 15.0679 154.125 15.0001V9.00007C154.125 8.9322 154.143 8.86559 154.178 8.80737C154.213 8.74914 154.263 8.70147 154.323 8.66944C154.383 8.63742 154.45 8.62224 154.518 8.62552C154.586 8.6288 154.652 8.65042 154.708 8.68807L159.208 11.6881C159.259 11.7223 159.302 11.7687 159.331 11.8231C159.36 11.8776 159.375 11.9383 159.375 12.0001C159.375 12.0618 159.36 12.1226 159.331 12.177C159.302 12.2314 159.259 12.2778 159.208 12.3121Z" fill="#EBEBF5" fill-opacity="0.6"/>
<path d="M204.75 12C204.75 15.5152 202.058 18.375 198.75 18.375C195.442 18.375 192.75 15.5152 192.75 12C192.75 8.48484 195.442 5.625 198.75 5.625C202.058 5.625 204.75 8.48484 204.75 12ZM214.5 6C214.301 6 214.11 6.07902 213.97 6.21967C213.829 6.36032 213.75 6.55109 213.75 6.75V17.25C213.75 17.4489 213.829 17.6397 213.97 17.7803C214.11 17.921 214.301 18 214.5 18C214.699 18 214.89 17.921 215.03 17.7803C215.171 17.6397 215.25 17.4489 215.25 17.25V6.75C215.25 6.55109 215.171 6.36032 215.03 6.21967C214.89 6.07902 214.699 6 214.5 6ZM209.25 6C208.717 6 207.712 6.25875 206.97 7.99228C206.506 9.07509 206.25 10.4984 206.25 12C206.25 13.5016 206.506 14.925 206.97 16.0077C207.713 17.7412 208.717 18 209.25 18C209.783 18 210.788 17.7412 211.53 16.0077C211.994 14.9249 212.25 13.5016 212.25 12C212.25 10.4984 211.994 9.075 211.53 7.99228C210.787 6.25884 209.783 6 209.25 6Z" fill="#EBEBF5" fill-opacity="0.6"/>
</svg>
